<svg width="156" height="156" xmlns="http://www.w3.org/2000/svg" xmlns:xlink="http://www.w3.org/1999/xlink" xml:space="preserve" overflow="hidden"><g transform="translate(-470 -338)"><path d="M544.588 403.396C541.842 400.917 538.298 399.504 534.6 399.414 531.708 399.323 528.922 400.512 526.987 402.664 523.019 407.271 524.459 415.072 530.213 420.087 532.958 422.568 536.501 423.983 540.2 424.075 543.093 424.165 545.878 422.976 547.813 420.825 551.788 416.213 550.348 408.411 544.588 403.396ZM545.351 418.698C544.03 420.129 542.146 420.907 540.2 420.825 537.288 420.727 534.505 419.599 532.348 417.641 528.022 413.873 526.695 407.987 529.449 404.791 530.77 403.359 532.654 402.582 534.6 402.664 537.512 402.761 540.294 403.889 542.452 405.845 546.784 409.615 548.112 415.501 545.358 418.698Z" stroke="#00B0F0" stroke-width="1.625"/><path d="M557.05 379.275C555.988 378.502 554.711 378.08 553.398 378.069 551.791 378.03 550.266 378.777 549.313 380.071 547.748 382.681 548.557 386.062 551.133 387.681 552.195 388.453 553.472 388.874 554.784 388.885 556.391 388.925 557.916 388.178 558.87 386.883 560.439 384.275 559.629 380.891 557.05 379.275ZM556.221 385C555.868 385.425 555.336 385.66 554.784 385.635 554.151 385.623 553.536 385.415 553.026 385.039 551.932 384.435 551.471 383.102 551.96 381.951 552.314 381.527 552.846 381.291 553.398 381.316 554.032 381.329 554.646 381.538 555.156 381.914 556.307 382.731 556.804 384.173 556.221 384.992Z" stroke="#00B0F0" stroke-width="1.625"/><path d="M530.832 438.807C529.726 437.897 528.342 437.392 526.909 437.375 525.422 437.343 524.003 437.997 523.061 439.148 521.339 441.655 521.947 445.08 524.428 446.839 525.534 447.749 526.918 448.254 528.351 448.271 529.837 448.303 531.256 447.649 532.197 446.498 533.918 443.991 533.31 440.568 530.832 438.807ZM529.654 444.475C529.324 444.842 528.847 445.042 528.354 445.021 527.664 445.004 527 444.753 526.472 444.309 525.426 443.636 525.054 442.284 525.609 441.171 525.939 440.804 526.416 440.604 526.909 440.625 527.595 440.641 528.255 440.889 528.781 441.329 529.843 441.993 530.221 443.358 529.654 444.475Z" stroke="#00B0F0" stroke-width="1.625"/><path d="M577.963 391.505 578.485 390.982 577.575 377.487 554.398 360.646 540.13 363.35 539.774 363.706C531.846 371.6 525.547 380.976 521.236 391.3 518.503 397.784 516.304 404.48 514.661 411.322 512.652 420.266 509.172 428.816 504.364 436.621L504.096 437.079 505.396 449.696 529.582 471.296 540.948 468.634 541.303 468.117C543.491 464.892 545.24 461.389 546.503 457.702 548.691 451.385 550.53 444.953 552.012 438.435 554.368 428.847 556.4 420.56 563.031 409.739 567.287 403.104 572.298 396.985 577.963 391.505ZM548.855 437.676C547.397 444.086 545.59 450.412 543.44 456.625L543.44 456.625C542.336 459.842 540.837 462.909 538.978 465.756L530.489 467.743 508.513 448.11 507.445 437.801C512.279 429.865 515.782 421.193 517.816 412.126 519.423 405.435 521.572 398.886 524.244 392.545 528.325 382.766 534.261 373.87 541.724 366.348L553.621 364.101 574.432 379.225 575.144 389.73C569.505 395.248 564.512 401.39 560.264 408.038 553.372 419.292 551.281 427.804 548.855 437.676Z" stroke="#00B0F0" stroke-width="1.625"/><path d="M622.425 442.112C622.148 441.49 621.512 441.106 620.833 441.152 615.498 441.503 610.736 437.695 606.318 433.761 602.675 430.501 599.358 426.893 596.417 422.987 593.25 418.943 590.96 416.021 585.793 414.425 579.509 412.475 572.706 415.15 567.615 418.163 568.326 416.816 569.109 415.433 569.99 413.995 579.644 398.232 599.555 383.394 599.555 383.394L548.45 346.262C533.957 355.726 522.441 369.102 515.237 384.841 514.47 381.726 512.901 378.866 510.687 376.545 507.468 373.396 504.375 372.985 500.462 372.463 496.687 372.037 492.967 371.215 489.363 370.009 485.722 368.782 480.654 366.67 478.689 362.508 478.306 361.697 477.337 361.349 476.526 361.732 476.217 361.878 475.961 362.118 475.796 362.417 472.992 367.504 471.835 375.619 474.747 380.387 476.689 383.067 479.436 385.06 482.587 386.074 482.594 386.079 482.595 386.088 482.589 386.095 482.589 386.095 482.588 386.096 482.587 386.097 481.082 387.949 480.627 390.441 481.382 392.706 482.296 395.631 485.493 398.556 490.763 399.399 490.771 399.399 490.777 399.406 490.776 399.414 490.776 399.417 490.775 399.42 490.774 399.422 490.407 400.116 490.213 400.889 490.207 401.674 490.225 402.991 490.847 404.226 491.895 405.023 494.82 407.449 499.993 407.085 502.388 406.754 503.272 408.322 504.505 409.665 505.992 410.68L506.371 410.945C504.414 419.033 501.118 426.738 496.621 433.74 494.126 437.821 490.764 441.302 486.772 443.935L533.367 485.519C533.367 485.519 547.118 480.513 554.188 460.362 556.382 454.102 558.233 447.726 559.734 441.264 560.012 441.334 560.304 441.328 560.579 441.246L561.016 441.096C562.474 443.82 565.875 449.605 569.125 451.126 570.459 451.842 572.062 451.842 573.396 451.126 574.277 450.614 574.995 449.861 575.463 448.955 575.465 448.948 575.472 448.945 575.479 448.947 575.483 448.949 575.486 448.951 575.487 448.955 579.941 455.284 584.551 456.566 587.549 456.566 587.924 456.567 588.298 456.547 588.671 456.506 590.355 456.355 591.906 455.525 592.967 454.207 593.873 453.006 594.464 451.597 594.685 450.109 594.685 450.094 594.698 450.089 594.707 450.099 597.294 452.26 601.396 455.059 605.447 455.232 612.109 455.557 619.097 449.516 622.331 443.627 622.597 443.164 622.632 442.604 622.425 442.112ZM605.59 451.986C600.405 451.765 594.451 445.447 594.392 445.383 593.78 444.727 592.752 444.692 592.095 445.304 591.72 445.654 591.533 446.16 591.589 446.67 591.797 448.582 591.389 450.51 590.426 452.174 589.906 452.82 589.14 453.219 588.313 453.274 584.088 453.732 579.85 450.531 576.374 444.249 575.939 443.464 574.95 443.181 574.165 443.616 573.711 443.868 573.404 444.322 573.34 444.837 573.085 446.898 572.39 447.969 571.823 448.282 571.696 448.35 571.314 448.562 570.503 448.182 568.228 447.116 564.837 441.569 563.239 438.323 562.846 437.525 561.886 437.191 561.083 437.573 561.083 437.573 560.891 437.661 560.595 437.785 561.083 435.781 561.583 433.849 562.131 431.943 562.442 430.852 561.811 429.715 560.72 429.404 560.533 429.351 560.34 429.324 560.145 429.325L560.145 429.325C559.674 429.511 559.315 429.903 559.17 430.388 558.4 433.043 557.75 435.729 557.045 438.587L556.703 439.98 556.612 440.346C555.129 446.756 553.296 453.08 551.122 459.29 546.05 473.727 537.532 479.7 533.929 481.663L491.911 444.15C494.873 441.662 497.409 438.709 499.421 435.406 504.22 427.865 507.713 419.57 509.754 410.868 509.911 410.257 509.704 409.61 509.221 409.204L507.251 407.566C506.801 407.197 506.394 406.777 506.039 406.315L505.888 406.122C505.46 405.551 505.087 404.941 504.775 404.3 504.469 403.598 503.714 403.205 502.963 403.357 501.304 403.695 496.093 404.263 493.974 402.508 493.468 402.092 493.467 401.77 493.465 401.648 493.666 400.665 494.251 399.804 495.09 399.254 495.778 398.677 495.867 397.652 495.29 396.965 494.981 396.597 494.525 396.384 494.043 396.385L494.035 396.385C487.626 396.375 485.009 393.351 484.498 391.726 483.955 389.793 484.835 387.744 486.611 386.807 487.399 386.377 487.689 385.39 487.259 384.602 487.036 384.193 486.648 383.899 486.193 383.796 484.383 383.381 479.3 381.662 477.53 378.703 475.743 375.778 476.068 370.687 477.482 366.624 477.486 366.617 477.496 366.614 477.504 366.619 477.506 366.62 477.508 366.622 477.509 366.624 480.423 370.091 484.924 371.943 488.327 373.09 492.124 374.367 496.046 375.238 500.027 375.69 503.729 376.178 505.963 376.482 508.409 378.875 511.153 381.917 512.684 385.861 512.713 389.958 512.721 390.145 512.76 390.331 512.828 390.505 510.892 395.392 509.541 399.488 508.506 403.018 508.309 403.893 508.859 404.763 509.735 404.96 510.537 405.14 511.348 404.693 511.623 403.918 513.068 398.997 514.783 394.16 516.759 389.428 523.381 373.638 534.328 360.039 548.338 350.196L594.163 383.5C587.91 388.57 574.721 400.054 567.216 412.303 565.605 414.919 564.158 417.633 562.883 420.428 562.362 421.541 561.894 422.632 561.466 423.707 561.278 424.147 561.481 424.656 561.921 424.845 562.139 424.938 562.386 424.938 562.604 424.845L564.778 423.958 565.082 423.785C569.499 420.467 577.811 415.37 584.839 417.545 589.036 418.845 590.851 421.163 593.866 425.006 596.925 429.065 600.374 432.815 604.163 436.204 608.146 439.749 612.745 443.469 618.047 444.278 618.056 444.28 618.062 444.288 618.061 444.297 618.06 444.299 618.06 444.301 618.059 444.303 614.95 448.534 609.987 452.216 605.588 451.986Z" stroke="#00B0F0" stroke-width="1.625"/></g></svg>